<?xml version="1.0" encoding="UTF-8"?>
<svg id="tt_contraste" xmlns="http://www.w3.org/2000/svg" viewBox="0 0 264.28 261.89">
  <g id="arrow">
    <polygon points="254.41 35.19 227.89 35.19 227.89 8.68 185.91 50.66 185.91 68.34 133.61 120.63 142.45 129.47 194.75 77.18 212.42 77.18 254.41 35.19" style="fill: #001b42; stroke-width: 0px;"/>
  </g>
  <circle id="_1" data-name="1" cx="132.14" cy="130.95" r="20.83" style="fill: #001b42; stroke-width: 0px;"/>
  <path d="m179.74,109.85c2.87,6.45,4.48,13.59,4.48,21.09,0,28.72-23.36,52.08-52.08,52.08s-52.08-23.36-52.08-52.08,23.36-52.08,52.08-52.08c7.5,0,14.64,1.61,21.09,4.48l15.45-15.45c-10.75-6.26-23.23-9.86-36.54-9.86-40.21,0-72.92,32.71-72.92,72.92s32.71,72.92,72.92,72.92,72.92-32.71,72.92-72.92c0-13.31-3.6-25.79-9.86-36.54l-15.45,15.45Z" style="fill: #001b42; stroke-width: 0px;"/>
  <path d="m224.48,82.79c7.54,14.41,11.82,30.79,11.82,48.15,0,57.44-46.73,104.17-104.17,104.17S27.97,188.38,27.97,130.94,74.7,26.78,132.14,26.78c17.36,0,33.74,4.28,48.15,11.82l15.31-15.31c-18.61-11.01-40.31-17.35-63.46-17.35C63.21,5.94,7.14,62.02,7.14,130.94s56.08,125,125,125,125-56.08,125-125c0-23.15-6.33-44.85-17.35-63.46l-15.31,15.31Z" style="fill: #001b42; stroke-width: 0px;"/>
</svg>