<?xml version="1.0" encoding="UTF-8"?>
<svg id="tt_contraste" xmlns="http://www.w3.org/2000/svg" viewBox="0 0 264.28 217.32">
  <path d="m179.98,167c5.39-2.69,10.4-5.98,15.33-9.42,9.16-6.4,17.38-13.83,24.51-22.42,7.36-8.87,13.21-18.67,17.1-29.57,2.81-7.87,4.48-15.95,5.02-24.31.56-8.73-.52-17.28-2.26-25.79-.09-.43-.27-.83.16-1.19,1.85-1.58,3.69-3.17,5.71-4.91.63,3.59,1.35,6.95,1.8,10.34,1.12,8.41,1.07,16.82-.22,25.23-1.4,9.14-4.16,17.85-8.09,26.2-5.95,12.61-14.11,23.67-23.89,33.56-13.14,13.29-28.27,23.77-45.17,31.73-.55.26-1.05.59-1.52.99-1.97,1.7-3.89,3.45-6.28,5.18,3.97-.43,7.53-1.15,11.08-1.92,10.39-2.25,20.32-5.78,29.71-10.74,7.3-3.86,14.05-8.55,20.12-14.18,6.01-5.56,11.16-11.8,15.45-18.79,4.67-7.59,7.83-15.79,10.16-24.34.3-1.1.82-1.53,1.88-1.74,2.03-.4,4.03-.95,6.29-1.49-.9,2.91-1.69,5.6-2.55,8.28-3.25,10.04-8.26,19.15-14.83,27.39-5.79,7.26-12.58,13.46-20.18,18.81-9.06,6.38-18.88,11.26-29.28,15.01-9.27,3.34-18.79,5.75-28.55,7.12-1.29.18-2.58.37-3.87.57-.6.09-1.13.32-1.66.68-8.32,5.68-17.04,10.68-26.38,14.48-8.31,3.38-16.9,5.86-25.79,7.28-7.83,1.24-15.69,1.57-23.55.94-9.49-.77-18.7-2.99-27.57-6.53-4.13-1.65-8.02-3.77-12.03-5.67-.7-.33-.66-.75-.44-1.37.67-1.88,1.33-3.77,1.92-5.68.27-.86.59-.93,1.36-.52,6.04,3.21,12.24,6.06,18.79,8.07,5.91,1.82,11.96,3.06,18.12,3.7,9.86,1.03,19.64.49,29.35-1.44,11.61-2.3,22.56-6.39,32.97-12,.28-.15.66-.21.84-.73-2.39.06-4.72-.23-7.01.31-6.87,1.63-13.83,2.69-20.86,3.34-8.04.74-16.09.78-24.12,0-12.07-1.16-23.74-3.95-34.85-8.94-9.08-4.08-17.33-9.41-24.79-16.01-6.37-5.64-11.66-12.19-16.58-19.08-.41-.57-.38-.93.14-1.41,1.47-1.36,2.92-2.74,4.33-4.17.64-.65.94-.68,1.52.13,3.8,5.37,7.81,10.58,12.51,15.21,4.48,4.41,9.32,8.38,14.57,11.84,8.05,5.3,16.71,9.26,25.94,12.02,8.63,2.58,17.43,4.09,26.42,4.55,2.95.15,5.9.39,8.87.07-4.54-.77-9.02-1.79-13.47-2.92-10.58-2.68-20.74-6.46-30.47-11.41-12.49-6.36-23.71-14.48-33.2-24.81-8.25-8.98-14.68-19.16-19.08-30.61-2.85-7.44-4.63-15.11-5.78-22.96q-.39-2.69,2.28-3.5c1.33-.41,2.68-.75,3.98-1.24.95-.36,1.14,0,1.27.86.45,3.05.88,6.12,1.5,9.14,1.28,6.28,3.19,12.36,5.71,18.26,4.04,9.45,9.53,17.97,16.32,25.66,6.23,7.06,13.35,13.1,21.16,18.34,11.7,7.85,24.41,13.48,37.9,17.41,8.87,2.58,17.95,4.09,27.1,5.37,6.63.93,12.79-.49,19.03-2.04,6.59-1.64,13.02-3.79,19.34-6.28.83-.33,1.5-.88,2.16-1.43,7.3-6.04,14.11-12.58,20.27-19.77,6.36-7.42,12.02-15.35,16.89-23.83,6.42-11.15,11.29-22.92,14.23-35.46,2.19-9.34,3.08-18.82,2.59-28.39-.46-9.14-2.29-18.06-5.58-26.59-2.93-7.57-6.74-14.7-11.79-21.12-1.29-1.64-2.56-3.31-3.83-4.96-.23-.3-.49-.53-.28-1.02.95-2.23,1.83-4.48,2.78-6.84,1.46,1.54,2.51,3.2,3.73,4.72,5.42,6.74,9.54,14.25,12.63,22.28,2.9,7.52,4.83,15.33,5.54,23.41.29,3.21.53,6.41.57,9.64.14,11.22-1.46,22.2-4.36,33.02-3.99,14.91-10.33,28.78-18.5,41.84-5.61,8.95-12.08,17.26-19.27,25-.41.44-.79.92-1.18,1.39-.05.09-.09.19-.14.28.1-.04.21-.07.31-.1" style="fill: #001b42; stroke-width: 0px;"/>
  <path d="m167.73,121.57c-.08.03-.16.05-.24.08.04-.07.07-.15.11-.22.04.05.09.09.13.14" style="fill: #fff; stroke-width: 0px;"/>
</svg>